<?xml version="1.0" encoding="UTF-8"?>
<svg version="1.1" xmlns="http://www.w3.org/2000/svg" width="1800" height="1800">
<path d="M0 0 C594 0 1188 0 1800 0 C1800 594 1800 1188 1800 1800 C1206 1800 612 1800 0 1800 C0 1206 0 612 0 0 Z " fill="#FEFEFE" transform="translate(0,0)"/>
<path d="M0 0 C3.72227485 0.82273821 7.4943082 1.30606937 11.265625 1.84814453 C24.74354153 3.89772691 37.37565123 7.6768823 50.140625 12.47314453 C51.99034912 13.15256104 51.99034912 13.15256104 53.87744141 13.84570312 C57.87376885 15.34538085 61.77477335 17.01049145 65.66796875 18.75830078 C66.34235489 19.06005722 67.01674103 19.36181366 67.71156311 19.67271423 C69.11960063 20.30412683 70.52702157 20.9369161 71.93383789 21.57104492 C74.0943307 22.5429346 76.25897459 23.50515517 78.42382812 24.46728516 C79.797139 25.08453667 81.1701955 25.70235452 82.54296875 26.32080078 C83.51471291 26.75054955 83.51471291 26.75054955 84.50608826 27.1889801 C89.0263116 29.24451773 89.0263116 29.24451773 90.140625 31.47314453 C92.03333861 32.18212087 93.92800359 32.88635597 95.83251953 33.56298828 C99.80694035 35.1302234 103.41067231 37.29889185 107.078125 39.47314453 C107.84447266 39.91142578 108.61082031 40.34970703 109.40039062 40.80126953 C110.12806641 41.22923828 110.85574219 41.65720703 111.60546875 42.09814453 C112.58954712 42.67435547 112.58954712 42.67435547 113.59350586 43.26220703 C115.140625 44.47314453 115.140625 44.47314453 116.140625 47.47314453 C117.78096693 48.20218539 119.45364418 48.85969696 121.140625 49.47314453 C121.90375 49.94751953 122.666875 50.42189453 123.453125 50.91064453 C126.21646847 52.6272927 126.21646847 52.6272927 129.828125 53.78564453 C134.94202577 55.62391097 139.7625518 58.25238986 144.140625 61.47314453 C144.140625 62.13314453 144.140625 62.79314453 144.140625 63.47314453 C144.85734375 63.75158203 145.5740625 64.03001953 146.3125 64.31689453 C149.06304632 65.44142728 151.72364963 66.66361171 154.390625 67.97314453 C155.26203125 68.39595703 156.1334375 68.81876953 157.03125 69.25439453 C159.140625 70.47314453 159.140625 70.47314453 160.140625 72.47314453 C160.841875 72.74900391 161.543125 73.02486328 162.265625 73.30908203 C165.89022554 74.77665127 168.93779456 76.89360966 172.140625 79.09814453 C173.47816514 80.00067223 174.8167253 80.90168993 176.15625 81.80126953 C176.82462891 82.25050781 177.49300781 82.69974609 178.18164062 83.16259766 C181.06500054 85.09154532 183.96363791 86.98551638 186.890625 88.84814453 C188.30601562 89.75693359 188.30601562 89.75693359 189.75 90.68408203 C194.38416625 93.12929879 199.18800331 94.78630448 204.140625 96.47314453 C205.05666504 96.78767578 205.97270508 97.10220703 206.91650391 97.42626953 C222.41542127 102.66963024 238.07222799 106.85411952 253.97021484 110.69140625 C258.44356369 111.79441434 262.88402454 113.00879791 267.328125 114.22314453 C273.9608385 116.0247281 280.57777179 117.29162971 287.35986328 118.38256836 C292.10890146 119.18494552 296.15976558 120.49181849 300.53125 122.45751953 C303.78407584 123.72358947 307.04498178 124.40784181 310.453125 125.16064453 C327.35597036 129.09073831 350.1274875 137.66812325 363.140625 149.47314453 C363.140625 150.13314453 363.140625 150.79314453 363.140625 151.47314453 C364.12417969 151.69744141 365.10773438 151.92173828 366.12109375 152.15283203 C370.75988673 153.48419709 374.46974555 155.93355625 378.453125 158.59814453 C379.57678467 159.34064453 379.57678467 159.34064453 380.72314453 160.09814453 C404.98879523 176.30673838 404.98879523 176.30673838 410.140625 187.47314453 C411.46911191 188.47957401 412.80212829 189.48006632 414.140625 190.47314453 C414.470625 191.46314453 414.800625 192.45314453 415.140625 193.47314453 C416.130625 194.13314453 417.120625 194.79314453 418.140625 195.47314453 C418.470625 196.46314453 418.800625 197.45314453 419.140625 198.47314453 C420.130625 199.13314453 421.120625 199.79314453 422.140625 200.47314453 C422.84773178 202.12306035 423.50849571 203.79307466 424.140625 205.47314453 C425.24833191 207.39150411 426.39900674 209.28533171 427.578125 211.16064453 C428.29954352 212.3220629 429.02089392 213.48352357 429.7421875 214.64501953 C430.95979375 216.59359506 432.18224686 218.53875566 433.41308594 220.47900391 C439.12660531 229.49319581 444.40690175 238.62156905 449.203125 248.16064453 C449.90078979 249.54110962 449.90078979 249.54110962 450.61254883 250.94946289 C452.50179158 254.77676876 454.22990824 258.40364343 455.26171875 262.55517578 C455.55175781 263.51810547 455.84179688 264.48103516 456.140625 265.47314453 C457.130625 265.80314453 458.120625 266.13314453 459.140625 266.47314453 C460.1328125 268.80908203 460.1328125 268.80908203 461.015625 271.84814453 C462.67810263 277.23508755 464.74514177 282.21747156 467.1875 287.29345703 C468.140625 289.47314453 468.140625 289.47314453 468.140625 291.47314453 C468.800625 291.47314453 469.460625 291.47314453 470.140625 291.47314453 C470.800625 294.77314453 471.460625 298.07314453 472.140625 301.47314453 C472.800625 301.47314453 473.460625 301.47314453 474.140625 301.47314453 C477.6994104 310.99478844 479.2788208 320.60381016 480.74511719 330.62524414 C480.89883789 331.66559814 481.05255859 332.70595215 481.2109375 333.77783203 C481.34258301 334.7057959 481.47422852 335.63375977 481.60986328 336.58984375 C482.09812694 339.56751059 482.09812694 339.56751059 483.16088867 342.73852539 C484.32833557 347.18867122 484.58667043 351.34190354 484.74609375 355.92236328 C484.78300827 356.83330246 484.81992279 357.74424164 484.85795593 358.68278503 C485.26757835 369.54726839 485.42490526 380.41404464 485.453125 391.28564453 C485.45804962 392.85715775 485.45804962 392.85715775 485.46307373 394.4604187 C485.47982789 411.02380448 484.8332663 426.93797138 480.12109375 442.93408203 C479.1169443 446.55862149 478.43958562 450.14522384 477.79614258 453.84667969 C476.11212148 463.52211442 473.80754792 472.33991645 470.140625 481.47314453 C469.810625 482.46314453 469.480625 483.45314453 469.140625 484.47314453 C468.480625 484.47314453 467.820625 484.47314453 467.140625 484.47314453 C466.769375 485.73126953 466.398125 486.98939453 466.015625 488.28564453 C464.39539885 493.17718442 462.08355596 497.49487706 459.55078125 501.96923828 C458.49142555 503.85025491 457.5135251 505.77751232 456.578125 507.72314453 C455.3848922 510.00585075 454.16713594 511.85868769 452.640625 513.91064453 C450.16517046 517.26110868 448.6442547 520.59536267 447.140625 524.47314453 C446.480625 524.47314453 445.820625 524.47314453 445.140625 524.47314453 C445.05296875 525.17439453 444.9653125 525.87564453 444.875 526.59814453 C443.97634821 530.11627071 442.42710583 532.47201488 440.390625 535.47314453 C439.71515625 536.48376953 439.0396875 537.49439453 438.34375 538.53564453 C436.13879077 541.47559017 433.76604993 543.90793576 431.140625 546.47314453 C429.40688421 548.43643044 427.69976097 550.40614655 426.015625 552.41064453 C425.54334473 552.96985596 425.07106445 553.52906738 424.58447266 554.10522461 C420.64805339 558.79804619 416.88031303 563.61231646 413.12646484 568.45141602 C409.75123353 572.77250684 406.15742003 576.82703127 402.44140625 580.85986328 C399.76263973 583.90246905 397.29870296 587.07380567 394.828125 590.28564453 C389.7374454 596.88075533 384.21750655 602.96151097 378.50146484 609.01513672 C376.56679171 611.08795121 374.70062153 613.21918975 372.828125 615.34814453 C368.91279659 619.73502709 364.76353586 623.84764229 360.578125 627.97314453 C354.97496096 633.51218178 349.90561408 639.18964245 345.140625 645.47314453 C343.03377085 648.03604404 340.92324126 650.59568868 338.8046875 653.14892578 C337.07077198 655.35930166 337.07077198 655.35930166 336.27734375 657.76611328 C334.58666471 661.79236954 331.96578152 665.01580515 329.328125 668.47314453 C328.54598633 669.52115234 328.54598633 669.52115234 327.74804688 670.59033203 C324.77867784 674.51983412 321.67792 678.0314521 318.140625 681.47314453 C314.67872728 685.59928899 312.09548834 689.44635309 310.140625 694.47314453 C308.80729167 695.80647786 307.47395833 697.1398112 306.140625 698.47314453 C303.04035838 702.92260125 300.5186424 707.6038708 298.140625 712.47314453 C297.480625 713.46314453 296.820625 714.45314453 296.140625 715.47314453 C295.480625 715.47314453 294.820625 715.47314453 294.140625 715.47314453 C293.955 716.55595703 293.955 716.55595703 293.765625 717.66064453 C293.1501319 720.43036348 292.25618126 722.87017993 291.140625 725.47314453 C290.480625 725.47314453 289.820625 725.47314453 289.140625 725.47314453 C288.83125 726.46314453 288.83125 726.46314453 288.515625 727.47314453 C287.32014261 730.08146974 286.19636902 731.80894084 284.453125 734.03564453 C277.02917406 743.75361438 272.69171988 753.82924597 268.88330078 765.31054688 C267.9289441 768.08953815 266.86369968 770.81786462 265.79003906 773.55249023 C257.88425299 793.79798213 256.97869635 813.1455666 257.05883789 834.65209961 C257.06240219 836.63806074 257.06548592 838.62402278 257.06813049 840.60998535 C257.07463555 844.85607308 257.08416406 849.10213901 257.09602547 853.3482151 C257.11444932 860.06894584 257.12395094 866.78967157 257.13194275 873.51042175 C257.1559987 892.6108934 257.19202274 911.71133317 257.23657227 930.81176758 C257.26115235 941.38404922 257.27849286 951.95631866 257.28813165 962.52862471 C257.29465382 969.20366544 257.31016706 975.87860465 257.33244908 982.55361044 C257.34421157 986.70806848 257.34754829 990.86250215 257.34854698 995.0169754 C257.3506868 996.93657578 257.35625197 998.85617601 257.3655777 1000.77575493 C257.41452986 1011.26075922 257.11005049 1020.75709588 254.140625 1030.88330078 C252.76164608 1035.83361966 251.97474027 1040.84404594 251.140625 1045.91064453 C249.29374544 1057.08570874 249.29374544 1057.08570874 248.046875 1061.91845703 C247.34904814 1064.65562273 246.86570955 1067.11396902 246.640625 1069.91064453 C246.475625 1071.08626953 246.310625 1072.26189453 246.140625 1073.47314453 C245.480625 1073.80314453 244.820625 1074.13314453 244.140625 1074.47314453 C243.34121192 1076.9968391 242.6470142 1079.4703336 242.015625 1082.03564453 C241.83386719 1082.7465625 241.65210938 1083.45748047 241.46484375 1084.18994141 C241.01618035 1085.94917422 240.57746543 1087.7109387 240.140625 1089.47314453 C239.480625 1089.47314453 238.820625 1089.47314453 238.140625 1089.47314453 C237.97046875 1090.05322266 237.8003125 1090.63330078 237.625 1091.23095703 C236.05808516 1096.28175699 234.13253639 1100.07877468 231.140625 1104.47314453 C230.00781476 1107.10836834 229.07681794 1109.75818502 228.140625 1112.47314453 C227.480625 1112.47314453 226.820625 1112.47314453 226.140625 1112.47314453 C225.88925781 1113.19501953 225.63789062 1113.91689453 225.37890625 1114.66064453 C224.03695847 1117.70860163 222.43233702 1119.89820056 220.328125 1122.47314453 C219.66167969 1123.29814453 218.99523438 1124.12314453 218.30859375 1124.97314453 C216.02857648 1127.60235364 213.61038564 1130.02189784 211.140625 1132.47314453 C209.16169921 1134.57933354 207.21461999 1136.71427452 205.265625 1138.84814453 C201.45956438 1142.99888741 197.60439897 1147.0613212 193.578125 1151.00048828 C192.20023864 1152.41207295 190.94703063 1153.94218376 189.703125 1155.47314453 C185.66039606 1160.20609548 180.91680892 1164.00144928 176.1328125 1167.96533203 C175.6076001 1168.40071289 175.0823877 1168.83609375 174.54125977 1169.28466797 C173.02161233 1170.54150166 171.49724154 1171.79261773 169.97265625 1173.04345703 C167.12552384 1175.41984265 167.12552384 1175.41984265 164.62109375 1178.01611328 C162.10106235 1180.51233336 159.50889961 1182.57792266 156.640625 1184.66064453 C155.7228125 1185.33482422 154.805 1186.00900391 153.859375 1186.70361328 C151.32989309 1188.34995711 148.97735996 1189.47103707 146.140625 1190.47314453 C146.140625 1191.13314453 146.140625 1191.79314453 146.140625 1192.47314453 C136.140625 1196.47314453 136.140625 1196.47314453 133.37109375 1197.41845703 C132.63503906 1197.76650391 131.89898438 1198.11455078 131.140625 1198.47314453 C130.810625 1199.46314453 130.480625 1200.45314453 130.140625 1201.47314453 C126.05156496 1204.56130032 121.67172142 1206.76333429 117.015625 1208.84814453 C112.24939834 1211.01946468 107.54724383 1213.25938547 102.890625 1215.66064453 C98.20817738 1218.0397318 93.48544168 1219.83181695 88.52734375 1221.54345703 C85.41223864 1222.7568695 82.89784231 1224.59589019 80.140625 1226.47314453 C77.69131955 1227.55421728 75.21423045 1228.51632247 72.7109375 1229.46533203 C70.30912501 1230.40707614 68.02409146 1231.47509624 65.703125 1232.59814453 C61.50041798 1234.50712061 57.42846913 1235.20236136 52.890625 1235.91455078 C49.27753606 1236.64845947 46.11444702 1238.01925267 42.73828125 1239.46923828 C39.90177926 1240.56545033 37.10081083 1241.28130033 34.140625 1241.97314453 C30.36818579 1242.85993138 26.89214691 1243.89165012 23.328125 1245.41064453 C18.0854051 1247.61459048 12.72100738 1248.98994692 7.21875 1250.39892578 C2.88669135 1251.51779487 -1.38856104 1252.80736721 -5.671875 1254.09814453 C-27.74999619 1260.66104569 -54.56350304 1263.71361564 -76.50390625 1255.56689453 C-79.8477472 1254.47693473 -82.37169209 1254.25950392 -85.859375 1254.47314453 C-86.13088379 1254.99634277 -86.40239258 1255.51954102 -86.68212891 1256.05859375 C-96.24498941 1274.45182311 -96.24498941 1274.45182311 -100.80078125 1281.56298828 C-101.88988695 1283.52820114 -102.42225851 1285.27773922 -102.859375 1287.47314453 C-103.519375 1287.47314453 -104.179375 1287.47314453 -104.859375 1287.47314453 C-105.00375 1288.25689453 -105.148125 1289.04064453 -105.296875 1289.84814453 C-105.859375 1292.47314453 -105.859375 1292.47314453 -106.859375 1294.47314453 C-107.519375 1294.47314453 -108.179375 1294.47314453 -108.859375 1294.47314453 C-109.189375 1296.12314453 -109.519375 1297.77314453 -109.859375 1299.47314453 C-110.519375 1299.47314453 -111.179375 1299.47314453 -111.859375 1299.47314453 C-112.11074219 1300.18857422 -112.36210938 1300.90400391 -112.62109375 1301.64111328 C-118.43060244 1314.92784452 -131.84756333 1328.99633113 -142.30078125 1338.94970703 C-144.02331285 1340.5654857 -144.02331285 1340.5654857 -145.859375 1343.03564453 C-148.20530163 1345.89474261 -150.81668668 1348.1551838 -153.62890625 1350.54736328 C-155.09154291 1351.81020019 -156.52807313 1353.10406311 -157.93359375 1354.43017578 C-163.55111369 1359.71436993 -169.53201913 1364.33417733 -175.734375 1368.91064453 C-176.56751221 1369.52625244 -177.40064941 1370.14186035 -178.2590332 1370.77612305 C-184.36283801 1375.23175805 -184.36283801 1375.23175805 -186.97314453 1376.50073242 C-189.12659812 1377.48006749 -189.12659812 1377.48006749 -191.234375 1379.97314453 C-194.08599799 1382.68897595 -196.16431464 1383.3235702 -199.859375 1384.47314453 C-200.519375 1385.46314453 -201.179375 1386.45314453 -201.859375 1387.47314453 C-204.984375 1388.16064453 -204.984375 1388.16064453 -207.859375 1388.47314453 C-208.189375 1389.46314453 -208.519375 1390.45314453 -208.859375 1391.47314453 C-210.8984375 1392.46533203 -210.8984375 1392.46533203 -213.484375 1393.34814453 C-216.80609951 1394.57737027 -219.47876137 1395.74955531 -222.234375 1397.97314453 C-226.08794585 1400.95507435 -230.3749668 1402.16946151 -234.9921875 1403.57861328 C-237.68146264 1404.41763781 -240.25935459 1405.39218367 -242.859375 1406.47314453 C-242.859375 1407.13314453 -242.859375 1407.79314453 -242.859375 1408.47314453 C-243.65988281 1408.72221558 -243.65988281 1408.72221558 -244.4765625 1408.97631836 C-246.93824377 1409.74373046 -249.39880819 1410.51466693 -251.859375 1411.28564453 C-252.69855469 1411.54667969 -253.53773438 1411.80771484 -254.40234375 1412.07666016 C-258.35934401 1413.31897419 -262.2715589 1414.60240457 -266.140625 1416.09814453 C-269.25407199 1417.24933501 -272.10604275 1418.07323732 -275.359375 1418.66064453 C-276.2153125 1418.81919922 -277.07125 1418.97775391 -277.953125 1419.14111328 C-278.5821875 1419.25068359 -279.21125 1419.36025391 -279.859375 1419.47314453 C-279.859375 1420.13314453 -279.859375 1420.79314453 -279.859375 1421.47314453 C-282.169375 1421.80314453 -284.479375 1422.13314453 -286.859375 1422.47314453 C-286.859375 1423.13314453 -286.859375 1423.79314453 -286.859375 1424.47314453 C-288.03306641 1424.67230469 -288.03306641 1424.67230469 -289.23046875 1424.87548828 C-290.24238281 1425.05208984 -291.25429688 1425.22869141 -292.296875 1425.41064453 C-293.30621094 1425.58466797 -294.31554687 1425.75869141 -295.35546875 1425.93798828 C-297.7881188 1426.2206555 -297.7881188 1426.2206555 -298.859375 1427.47314453 C-300.99874477 1427.84571505 -303.14633785 1428.17164535 -305.296875 1428.47314453 C-309.72486575 1428.99431844 -309.72486575 1428.99431844 -313.859375 1430.47314453 C-315.56484859 1430.63247943 -317.27427193 1430.75029122 -318.984375 1430.84814453 C-327.45221615 1431.48933923 -335.74427655 1433.12563998 -344.03085327 1434.9516449 C-350.52694438 1436.34424301 -356.95693347 1437.08392742 -363.578125 1437.57470703 C-365.2575116 1437.70022446 -365.2575116 1437.70022446 -366.9708252 1437.82827759 C-379.45943979 1438.6861468 -391.94012265 1438.84531843 -404.45458984 1438.84375 C-408.35688386 1438.84814173 -412.25805888 1438.88470675 -416.16015625 1438.92236328 C-430.80179763 1438.98616404 -444.77007228 1438.01555991 -459.18823242 1435.43261719 C-464.66563738 1434.45360901 -470.12819476 1433.90783971 -475.671875 1433.47314453 C-482.33576453 1432.88258406 -488.21335532 1431.69569213 -494.56640625 1429.48486328 C-499.26018383 1428.04276554 -504.01808579 1427.27670422 -508.86206055 1426.51245117 C-516.12952725 1425.34948357 -522.92548329 1423.18806741 -529.796875 1420.59814453 C-530.50779297 1420.33203369 -531.21871094 1420.06592285 -531.95117188 1419.79174805 C-535.36250837 1418.49523619 -538.65374575 1417.1676449 -541.859375 1415.41064453 C-546.30608939 1413.0185504 -551.16606512 1411.77791346 -555.98046875 1410.33935547 C-560.91748237 1408.83911929 -565.34830891 1407.01061921 -569.859375 1404.47314453 C-569.859375 1403.81314453 -569.859375 1403.15314453 -569.859375 1402.47314453 C-571.00148438 1402.22306641 -572.14359375 1401.97298828 -573.3203125 1401.71533203 C-577.99241608 1400.54473452 -582.16039357 1398.69014274 -586.484375 1396.59814453 C-587.20882812 1396.25912109 -587.93328125 1395.92009766 -588.6796875 1395.57080078 C-592.99544516 1393.51456117 -597.03588712 1391.35583728 -600.859375 1388.47314453 C-600.859375 1387.81314453 -600.859375 1387.15314453 -600.859375 1386.47314453 C-601.519375 1386.26689453 -602.179375 1386.06064453 -602.859375 1385.84814453 C-606.31431942 1384.26462834 -608.95310759 1382.19525022 -611.89453125 1379.81298828 C-613.91259698 1378.43685201 -615.47369445 1377.90352343 -617.859375 1377.47314453 C-617.859375 1376.81314453 -617.859375 1376.15314453 -617.859375 1375.47314453 C-618.643125 1375.18439453 -619.426875 1374.89564453 -620.234375 1374.59814453 C-622.859375 1373.47314453 -622.859375 1373.47314453 -624.859375 1371.47314453 C-626.1278125 1371.00908203 -626.1278125 1371.00908203 -627.421875 1370.53564453 C-628.6284375 1370.00970703 -628.6284375 1370.00970703 -629.859375 1369.47314453 C-630.189375 1368.48314453 -630.519375 1367.49314453 -630.859375 1366.47314453 C-632.16726299 1365.75784653 -633.50769449 1365.10177959 -634.859375 1364.47314453 C-649.89106116 1354.29613627 -662.83494114 1340.82062566 -673.859375 1326.47314453 C-678.98512545 1319.87994833 -678.98512545 1319.87994833 -684.609375 1313.72314453 C-689.20814263 1309.12437691 -691.37224183 1304.66953276 -692.859375 1298.47314453 C-693.519375 1298.47314453 -694.179375 1298.47314453 -694.859375 1298.47314453 C-699.48871092 1293.09714153 -702.19419746 1286.71041729 -704.7734375 1280.18017578 C-705.84471214 1277.3810693 -705.84471214 1277.3810693 -707.421875 1274.47314453 C-710.05638122 1268.97504459 -712.859375 1262.62227962 -712.859375 1256.47314453 C-713.519375 1256.47314453 -714.179375 1256.47314453 -714.859375 1256.47314453 C-715.12492187 1255.36455078 -715.39046875 1254.25595703 -715.6640625 1253.11376953 C-716.02058121 1251.65016643 -716.37736603 1250.18662813 -716.734375 1248.72314453 C-716.90839844 1247.99353516 -717.08242188 1247.26392578 -717.26171875 1246.51220703 C-717.52275391 1245.44873047 -717.52275391 1245.44873047 -717.7890625 1244.36376953 C-717.94616699 1243.7144043 -718.10327148 1243.06503906 -718.26513672 1242.39599609 C-718.80214898 1240.43669709 -718.80214898 1240.43669709 -719.85009766 1238.64257812 C-721.1899726 1235.76252762 -721.57986039 1233.00728708 -722.078125 1229.87158203 C-722.28824219 1228.57607422 -722.49835938 1227.28056641 -722.71484375 1225.94580078 C-722.93002041 1224.57996777 -723.14486214 1223.21408195 -723.359375 1221.84814453 C-725.20995354 1210.22480255 -725.20995354 1210.22480255 -727.41259766 1198.6640625 C-728.11131695 1195.23766526 -728.70303656 1191.79399218 -729.296875 1188.34814453 C-730.24842419 1182.85306935 -731.27214951 1177.38092566 -732.359375 1171.91064453 C-733.88695567 1164.07569823 -734.79223672 1156.17999683 -735.734375 1148.25708008 C-736.55692594 1141.49084889 -737.67359541 1134.91507152 -739.10546875 1128.25048828 C-740.2036491 1122.74820643 -741.00097062 1117.20943647 -741.80029297 1111.65698242 C-742.42855998 1107.29791074 -743.13378613 1102.98289612 -743.984375 1098.66064453 C-745.12560332 1092.00971554 -745.22360962 1085.31066682 -745.46972656 1078.58056641 C-746.62182686 1048.35487637 -751.21124272 1018.27753109 -755.53076172 988.37866211 C-756.06305262 984.68538583 -756.59028913 980.99141213 -757.1171875 977.29736328 C-757.27760529 976.19921799 -757.43802307 975.10107269 -757.603302 973.96965027 C-758.53913063 967.3975141 -759.18963997 960.86151909 -759.60383606 954.23530579 C-759.91980763 950.81991855 -760.84743989 947.74308387 -761.859375 944.47314453 C-762.28910067 941.65023118 -762.53953105 938.81628544 -762.796875 935.97314453 C-763.86254231 925.43656187 -765.93847673 915.27046767 -768.421875 904.97314453 C-769.46138773 900.57642997 -770.1647511 896.27369101 -770.671875 891.78564453 C-771.7006021 883.35359934 -773.66994911 875.17694756 -775.65161133 866.92358398 C-777.05957326 861.04495243 -778.31822583 855.18298996 -779.35888672 849.22851562 C-780.44706604 843.23769035 -781.7915364 837.29403012 -783.09179688 831.34619141 C-784.2811781 825.76580153 -785.20151929 820.28342836 -785.67138672 814.5949707 C-785.91379569 811.85889746 -786.36197799 809.17329974 -786.859375 806.47314453 C-787.519375 806.47314453 -788.179375 806.47314453 -788.859375 806.47314453 C-791.69619196 796.25836092 -794.30007208 786.12268246 -795.95825195 775.64331055 C-796.24841298 772.26876631 -796.24841298 772.26876631 -797.859375 769.47314453 C-798.10464232 767.31570055 -798.24255295 765.15931674 -798.3828125 762.99267578 C-798.74703619 760.36469837 -798.74703619 760.36469837 -800.26953125 757.87548828 C-802.48613002 753.13185799 -803.11707052 748.36991885 -803.921875 743.22314453 C-804.24485517 741.23856756 -804.56906452 739.25419023 -804.89453125 737.27001953 C-805.05107178 736.28638428 -805.2076123 735.30274902 -805.36889648 734.28930664 C-805.80752482 731.77085077 -806.36804508 729.32159568 -806.9609375 726.83642578 C-808.33942394 720.05656436 -808.19432552 713.16064684 -808.17504883 706.27172852 C-808.17191351 703.9392914 -808.19532817 701.60815786 -808.22070312 699.27587891 C-808.28786425 683.95980356 -805.56071496 669.8353697 -801.234375 655.16064453 C-800.61694835 653.01878637 -799.99975073 650.87686218 -799.3828125 648.73486328 C-799.11388184 647.81664795 -798.84495117 646.89843262 -798.56787109 645.95239258 C-797.95307287 643.80102252 -797.38604836 641.64749865 -796.859375 639.47314453 C-796.199375 639.47314453 -795.539375 639.47314453 -794.859375 639.47314453 C-794.69501953 638.27818359 -794.69501953 638.27818359 -794.52734375 637.05908203 C-793.66945932 631.32590313 -792.89915843 626.4473356 -789.859375 621.47314453 C-789.199375 621.47314453 -788.539375 621.47314453 -787.859375 621.47314453 C-787.77300781 620.87888672 -787.68664062 620.28462891 -787.59765625 619.67236328 C-786.56430645 613.57654747 -784.70449726 608.46351209 -781.98046875 602.91845703 C-780.9881664 600.75406236 -780.34016815 598.79607771 -779.859375 596.47314453 C-779.199375 596.47314453 -778.539375 596.47314453 -777.859375 596.47314453 C-777.611875 595.19439453 -777.364375 593.91564453 -777.109375 592.59814453 C-774.66556351 581.71978921 -769.53613299 571.17909127 -763.546875 561.82080078 C-760.32069985 556.7218113 -757.57021664 551.39046141 -754.796875 546.03564453 C-754.0224707 544.55741211 -754.0224707 544.55741211 -753.23242188 543.04931641 C-750.52729612 537.84927212 -747.9730845 532.6438526 -745.72094727 527.23071289 C-744.859375 525.47314453 -744.859375 525.47314453 -742.859375 523.47314453 C-742.14529166 521.4895797 -741.47319758 519.48999016 -740.859375 517.47314453 C-740.199375 517.47314453 -739.539375 517.47314453 -738.859375 517.47314453 C-737.55432135 514.96342597 -736.46792177 512.48600161 -735.421875 509.84814453 C-733.859375 506.47314453 -733.859375 506.47314453 -730.859375 504.47314453 C-730.570625 503.75126953 -730.281875 503.02939453 -729.984375 502.28564453 C-728.34998012 498.19965732 -725.90739183 493.49715295 -721.859375 491.47314453 C-721.15273121 489.82430901 -720.45026269 488.17350522 -719.7734375 486.51220703 C-717.3142758 481.02638478 -714.08564496 476.69941449 -709.859375 472.47314453 C-709.56160156 471.72548828 -709.26382813 470.97783203 -708.95703125 470.20751953 C-707.74772121 467.19500341 -706.22758576 464.64725705 -704.484375 461.91064453 C-703.89914062 460.98123047 -703.31390625 460.05181641 -702.7109375 459.09423828 C-700.93624224 456.5819587 -699.02969757 454.63928536 -696.859375 452.47314453 C-693.17071097 447.45344626 -689.39749874 442.30090721 -687.109375 436.47314453 C-685.77335551 433.26669775 -684.28012379 431.89389332 -681.859375 429.47314453 C-681.364375 428.31814453 -680.869375 427.16314453 -680.359375 425.97314453 C-678.84653397 422.44318213 -677.54574057 421.09335729 -674.859375 418.47314453 C-672.54689236 415.45629513 -670.43667186 412.30174115 -668.296875 409.16064453 C-667.72001953 408.33113281 -667.14316406 407.50162109 -666.54882812 406.64697266 C-663.38789487 402.02770802 -660.94696512 397.65484143 -658.859375 392.47314453 C-657.74564645 390.5170134 -656.59998883 388.57868731 -655.421875 386.66064453 C-651.65471105 380.31050952 -648.95335866 373.93742613 -646.734375 366.91064453 C-645.859375 364.47314453 -645.859375 364.47314453 -643.859375 363.47314453 C-643.00221503 360.91369493 -642.25075987 358.38746967 -641.546875 355.78564453 C-639.67408029 349.14093835 -637.56195437 342.65548077 -635.19140625 336.16845703 C-633.60522986 331.76809672 -632.09679725 327.34519256 -630.609375 322.91064453 C-630.35099854 322.14824463 -630.09262207 321.38584473 -629.82641602 320.6003418 C-628.59453765 316.91209552 -627.49934765 313.32059918 -626.859375 309.47314453 C-626.199375 309.47314453 -625.539375 309.47314453 -624.859375 309.47314453 C-624.80966553 308.82482666 -624.75995605 308.17650879 -624.70874023 307.50854492 C-624.10590018 300.24545057 -623.10330854 293.10026053 -621.921875 285.91064453 C-621.75236328 284.85167969 -621.58285156 283.79271484 -621.40820312 282.70166016 C-618.5885741 265.30143997 -618.5885741 265.30143997 -615.64453125 256.95751953 C-614.38258466 252.96449451 -613.56216489 248.87751776 -612.703125 244.78173828 C-611.89541458 241.61446642 -610.85285698 238.69774836 -609.67529297 235.65698242 C-608.17803811 231.64951842 -606.94220144 227.55700878 -605.671875 223.47314453 C-605.39923828 222.60302734 -605.12660156 221.73291016 -604.84570312 220.83642578 C-604.18159719 218.7159472 -603.51952726 216.59485661 -602.859375 214.47314453 C-602.199375 214.47314453 -601.539375 214.47314453 -600.859375 214.47314453 C-600.77300781 213.73451172 -600.68664062 212.99587891 -600.59765625 212.23486328 C-599.67114919 205.54531231 -598.0733275 200.00012779 -595.078125 193.94580078 C-593.82629329 191.49669018 -593.82629329 191.49669018 -592.87890625 188.94970703 C-591.81592538 186.36760025 -590.52822968 184.15033999 -589.046875 181.78564453 C-586.93545826 178.35841735 -585.10457386 174.94077847 -583.421875 171.28564453 C-581.39305916 167.13078526 -579.06242463 164.30322925 -575.6796875 161.18408203 C-573.760516 159.38022556 -572.06980931 157.47504299 -570.359375 155.47314453 C-562.00232333 145.8616127 -550.51905623 133.52892966 -537.859375 130.47314453 C-537.42625 129.99876953 -536.993125 129.52439453 -536.546875 129.03564453 C-534.01872202 126.69476214 -531.14824743 126.27984909 -527.859375 125.47314453 C-527.859375 124.81314453 -527.859375 124.15314453 -527.859375 123.47314453 C-525.34982554 122.46752901 -522.83917367 121.46517605 -520.32421875 120.47314453 C-519.49019531 120.14314453 -518.65617187 119.81314453 -517.796875 119.47314453 C-516.96027344 119.14314453 -516.12367188 118.81314453 -515.26171875 118.47314453 C-512.91274263 117.54633238 -512.91274263 117.54633238 -511 116.44970703 C-490.43126314 107.06615919 -463.34789365 112.09625846 -442.859375 118.47314453 C-442.02889648 118.7307959 -441.19841797 118.98844727 -440.34277344 119.25390625 C-426.05187455 123.84216071 -414.96634635 134.04001542 -404.67578125 144.65283203 C-402.84853152 146.48401133 -400.95029925 148.16753334 -398.984375 149.84814453 C-394.01216365 154.12405015 -389.45973229 158.80524529 -384.859375 163.47314453 C-383.19348511 165.14058762 -381.52673452 166.80717101 -379.859375 168.47314453 C-359.859375 188.47314453 -359.859375 188.47314453 -357.27124023 191.08422852 C-355.41580216 192.92201185 -353.55848175 194.68055563 -351.58203125 196.38330078 C-350.99325195 196.8921582 -350.40447266 197.40101563 -349.79785156 197.92529297 C-349.1787793 198.45670898 -348.55970703 198.988125 -347.921875 199.53564453 C-347.26799805 200.09928711 -346.61412109 200.66292969 -345.94042969 201.24365234 C-344.58299713 202.41304229 -343.2247562 203.5814945 -341.86572266 204.74902344 C-339.95900037 206.38753315 -338.05532194 208.02950809 -336.15234375 209.67236328 C-332.73342605 212.62023842 -329.29973034 215.55033644 -325.859375 218.47314453 C-324.9725 219.22982422 -324.085625 219.98650391 -323.171875 220.76611328 C-309.44134594 232.2570591 -294.6031337 242.92979816 -278.859375 251.47314453 C-276.51981194 252.79588092 -274.1898231 254.13437647 -271.859375 255.47314453 C-271.65828125 253.95527344 -271.65828125 253.95527344 -271.453125 252.40673828 C-270.89858788 248.73292984 -270.17457796 245.1592217 -269.359375 241.53564453 C-268.52536628 237.74250871 -267.73204861 234.02713324 -267.359375 230.16064453 C-266.8692208 226.54575728 -265.94409784 223.59415321 -264.734375 220.18017578 C-263.66580729 216.87429444 -262.86154318 213.53812303 -262.046875 210.16064453 C-259.88166444 201.21232781 -257.20695793 192.43236309 -254.51049805 183.63232422 C-253.94166378 181.74602117 -253.40372569 179.85045666 -252.87109375 177.95361328 C-251.63655849 173.70662134 -250.21985866 169.53499248 -248.796875 165.34814453 C-246.62857184 158.92373702 -244.53277059 152.48128476 -242.5390625 146.00048828 C-242.34246536 145.3618988 -242.14586823 144.72330933 -241.9433136 144.06536865 C-240.97425302 140.91210348 -240.01190185 137.75702237 -239.05639648 134.59960938 C-236.15499873 125.11042429 -232.99423336 116.24480133 -228.0234375 107.64501953 C-226.87349708 105.49949312 -225.99834432 103.38554448 -225.171875 101.09814453 C-223.859375 97.47314453 -223.859375 97.47314453 -221.859375 94.47314453 C-221.199375 94.47314453 -220.539375 94.47314453 -219.859375 94.47314453 C-219.199375 91.50314453 -218.539375 88.53314453 -217.859375 85.47314453 C-217.199375 85.47314453 -216.539375 85.47314453 -215.859375 85.47314453 C-215.59125 84.56564453 -215.323125 83.65814453 -215.046875 82.72314453 C-213.93159179 79.67079049 -212.78570553 78.01590083 -210.859375 75.47314453 C-210.4159375 74.40451172 -209.9725 73.33587891 -209.515625 72.23486328 C-203.15178451 57.0866886 -189.73391613 44.77554828 -177.859375 33.91064453 C-177.35148438 33.44207031 -176.84359375 32.97349609 -176.3203125 32.49072266 C-171.72221629 28.27580113 -167.7468913 24.73976385 -161.91796875 22.44580078 C-159.35646613 21.23552725 -157.13939948 19.69078599 -154.796875 18.09814453 C-148.50590759 14.01287783 -141.96697292 11.75719291 -134.859375 9.47314453 C-132.88493187 8.81926411 -130.91232527 8.16006316 -128.93994141 7.5 C-127.02479178 6.86161679 -125.10617306 6.23367106 -123.1875 5.60595703 C-120.63389979 4.73677386 -118.20470253 3.79223586 -115.734375 2.72314453 C-111.28714173 0.97357364 -106.63961622 0.96865107 -101.91015625 0.78173828 C-98.80351404 0.46749406 -96.73800633 -0.3678165 -93.859375 -1.52685547 C-65.04647521 -8.43512282 -28.66104989 -6.77078503 0 0 Z " fill="#B4D1DA" transform="translate(1071.859375,158.52685546875)"/>
<path d="M0 0 C0.83047852 0.25765137 1.66095703 0.51530273 2.51660156 0.78076172 C16.80750045 5.36901618 27.89302865 15.56687089 38.18359375 26.1796875 C40.01084348 28.0108668 41.90907575 29.69438881 43.875 31.375 C48.84721135 35.65090562 53.39964271 40.33210076 58 45 C59.66588989 46.66744308 61.33264048 48.33402648 63 50 C83 70 83 70 85.58813477 72.61108398 C87.44357284 74.44886731 89.30089325 76.2074111 91.27734375 77.91015625 C91.86612305 78.41901367 92.45490234 78.92787109 93.06152344 79.45214844 C93.99013184 80.24927246 93.99013184 80.24927246 94.9375 81.0625 C95.59137695 81.62614258 96.24525391 82.18978516 96.91894531 82.77050781 C98.27637787 83.93989776 99.6346188 85.10834997 100.99365234 86.27587891 C102.90037463 87.91438862 104.80405306 89.55636355 106.70703125 91.19921875 C110.12594895 94.14709389 113.55964466 97.07719191 117 100 C117.886875 100.75667969 118.77375 101.51335937 119.6875 102.29296875 C132.06041855 112.64774357 145.51617385 122.85221869 159.6875 130.625 C160.42226563 131.03234375 161.15703125 131.4396875 161.9140625 131.859375 C163.23044514 132.57919472 164.55760289 133.27994877 165.8984375 133.953125 C167.5625 134.875 167.5625 134.875 170 137 C170.40878846 142.10355459 169.59345835 146.55706413 168.3828125 151.50390625 C168.21007309 152.21243744 168.03733368 152.92096863 167.85935974 153.65097046 C167.29178982 155.95758642 166.70977382 158.26018951 166.125 160.5625 C165.92736053 161.35069122 165.72972107 162.13888245 165.52609253 162.95095825 C161.08712448 180.5828021 155.86397296 198.14506892 149 215 C148.34 215 147.68 215 147 215 C146.74476563 215.8353125 146.74476563 215.8353125 146.484375 216.6875 C144.99016487 221.39267234 143.25069143 225.73216771 140.96484375 230.10546875 C140.08017068 231.84257985 139.31459453 233.63901307 138.5625 235.4375 C136.65152541 239.79452207 134.36553247 243.87668055 132 248 C131.34 248 130.68 248 130 248 C129.896875 248.70125 129.79375 249.4025 129.6875 250.125 C128.90640997 253.39137647 127.57941257 256.0471852 126 259 C125.34 259 124.68 259 124 259 C123.731875 260.03125 123.46375 261.0625 123.1875 262.125 C122.19001103 265.6485042 120.7338102 268.76880827 119 272 C118.34 272 117.68 272 117 272 C116.62875 273.2375 116.62875 273.2375 116.25 274.5 C115.11128442 277.68840362 113.70301752 280.5645359 112.15234375 283.56640625 C109.78095097 288.57446626 107.93055839 293.80964629 106 299 C105.34 299 104.68 299 104 299 C103.83056885 299.53149658 103.6611377 300.06299316 103.48657227 300.6105957 C101.54615446 306.57668538 99.30700426 312.38023631 96.9375 318.1875 C93.93554971 325.56293382 91.23846984 332.70729689 89.56689453 340.50634766 C88.29806607 346.08766285 86.66817034 351.58196811 85.12304688 357.09179688 C83.84268815 361.71194419 82.64818523 366.23863939 82 371 C81.34 371 80.68 371 80 371 C79.27276039 389.72353402 78.68626475 408.28432554 80 427 C80.66 427 81.32 427 82 427 C82.20881302 427.84430824 82.20881302 427.84430824 82.42184448 428.70567322 C86.36988914 444.54255985 91.05950747 460.05103918 96.125 475.5625 C97.52675762 479.87523025 98.92488748 484.18912302 100.3203125 488.50390625 C100.64936081 489.52102692 100.97840912 490.53814758 101.31742859 491.58609009 C104.3416216 500.97798965 107.17471712 510.39190136 109.4375 520 C110.45053255 524.15505862 111.72980216 528.06640992 113.25 532.0625 C119.31312923 548.65441651 122.88962959 566.17381715 126.8125 583.375 C127.10237793 584.63884521 127.39225586 585.90269043 127.69091797 587.20483398 C129.46272352 595.10278513 130.86926682 602.98667408 132 611 C132.16346924 612.10907715 132.32693848 613.2181543 132.49536133 614.36083984 C135.20195929 632.87360326 137.06965831 651.30638056 138 670 C138.04137085 670.79870514 138.0827417 671.59741028 138.12536621 672.4203186 C138.94318915 688.52742735 139.16421967 704.62575951 139.30950356 720.74926186 C139.68478341 761.30973481 141.66717798 800.89850906 148.63867188 840.9197998 C148.97523473 842.85742398 149.30432157 844.79634262 149.6328125 846.73535156 C157.04251813 890.09447902 171.12408909 932.84524488 190.00415039 972.56030273 C191.01445771 975.03541945 191.48275322 977.38635116 192 980 C192.97850195 981.02104551 193.97980427 982.0206121 195 983 C196.11973706 985.50294166 197.01553543 988.04349921 197.9375 990.625 C198.83057753 993.00175984 198.83057753 993.00175984 200.43334961 994.4284668 C202.04144685 996.04157603 203.02070869 997.53739568 204.12890625 999.51953125 C204.51916992 1000.20523193 204.90943359 1000.89093262 205.31152344 1001.59741211 C205.7243457 1002.32839111 206.13716797 1003.05937012 206.5625 1003.8125 C210.2318631 1010.19444453 214.15660797 1016.23439228 218.51855469 1022.16113281 C221.50169999 1026.2312157 224.12216872 1030.39587177 226.55078125 1034.81640625 C228.38783111 1037.58436008 230.62758693 1039.67600352 233 1042 C234.89775023 1044.10895875 236.72900225 1046.27263621 238.5625 1048.4375 C239.34185913 1049.3500354 239.34185913 1049.3500354 240.13696289 1050.28100586 C242.769981 1053.36535318 245.38873988 1056.46097353 247.9921875 1059.5703125 C258.05985845 1071.54403123 268.70649755 1082.29082507 281 1092 C282.81312178 1093.520092 284.62561632 1095.04093245 286.4375 1096.5625 C298.62116876 1106.502717 312.45499539 1114.9813774 327 1121 C327 1121.66 327 1122.32 327 1123 C328.98 1123 330.96 1123 333 1123 C333 1123.66 333 1124.32 333 1125 C333.56203125 1125.13277344 334.1240625 1125.26554687 334.703125 1125.40234375 C337.09366153 1126.02437111 339.41035775 1126.77115041 341.75 1127.5625 C342.54921875 1127.83191406 343.3484375 1128.10132813 344.171875 1128.37890625 C344.77515625 1128.58386719 345.3784375 1128.78882813 346 1129 C346 1129.66 346 1130.32 346 1131 C349.3 1131.66 352.6 1132.32 356 1133 C356 1137.63244174 354.51112404 1140.50285719 352.4375 1144.5 C352.07906006 1145.20543945 351.72062012 1145.91087891 351.35131836 1146.63769531 C348.55916629 1152.07326496 345.54212042 1157.33676943 342.34765625 1162.546875 C341.1363344 1164.75183187 340.4535695 1166.54268678 340 1169 C339.34 1169 338.68 1169 338 1169 C337.855625 1169.78375 337.71125 1170.5675 337.5625 1171.375 C337 1174 337 1174 336 1176 C335.34 1176 334.68 1176 334 1176 C333.67 1177.65 333.34 1179.3 333 1181 C332.34 1181 331.68 1181 331 1181 C330.74863281 1181.71542969 330.49726562 1182.43085937 330.23828125 1183.16796875 C324.42877256 1196.45469999 311.01181167 1210.5231866 300.55859375 1220.4765625 C298.83606215 1222.09234117 298.83606215 1222.09234117 297 1224.5625 C294.65407337 1227.42159808 292.04268832 1229.68203927 289.23046875 1232.07421875 C287.76783209 1233.33705565 286.33130187 1234.63091857 284.92578125 1235.95703125 C279.30826131 1241.2412254 273.32735587 1245.8610328 267.125 1250.4375 C266.29186279 1251.05310791 265.45872559 1251.66871582 264.6003418 1252.30297852 C258.49653699 1256.75861352 258.49653699 1256.75861352 255.88623047 1258.02758789 C253.73277688 1259.00692296 253.73277688 1259.00692296 251.625 1261.5 C248.77337701 1264.21583142 246.69506036 1264.85042566 243 1266 C242.34 1266.99 241.68 1267.98 241 1269 C237.875 1269.6875 237.875 1269.6875 235 1270 C234.67 1270.99 234.34 1271.98 234 1273 C231.9609375 1273.9921875 231.9609375 1273.9921875 229.375 1274.875 C226.05327549 1276.10422574 223.38061363 1277.27641078 220.625 1279.5 C216.77142915 1282.48192982 212.4844082 1283.69631698 207.8671875 1285.10546875 C205.17791236 1285.94449328 202.60002041 1286.91903913 200 1288 C200 1288.66 200 1289.32 200 1290 C199.19949219 1290.24907104 199.19949219 1290.24907104 198.3828125 1290.50317383 C195.92113123 1291.27058593 193.46056681 1292.0415224 191 1292.8125 C190.16082031 1293.07353516 189.32164062 1293.33457031 188.45703125 1293.60351562 C184.50003099 1294.84582966 180.5878161 1296.12926004 176.71875 1297.625 C173.60530301 1298.77619048 170.75333225 1299.60009279 167.5 1300.1875 C166.6440625 1300.34605469 165.788125 1300.50460937 164.90625 1300.66796875 C164.2771875 1300.77753906 163.648125 1300.88710937 163 1301 C163 1301.66 163 1302.32 163 1303 C160.69 1303.33 158.38 1303.66 156 1304 C156 1304.66 156 1305.32 156 1306 C154.82630859 1306.19916016 154.82630859 1306.19916016 153.62890625 1306.40234375 C152.61699219 1306.57894531 151.60507812 1306.75554687 150.5625 1306.9375 C149.55316406 1307.11152344 148.54382813 1307.28554687 147.50390625 1307.46484375 C145.0712562 1307.74751097 145.0712562 1307.74751097 144 1309 C141.86063023 1309.37257052 139.71303715 1309.69850082 137.5625 1310 C133.13450925 1310.52117391 133.13450925 1310.52117391 129 1312 C127.29452641 1312.1593349 125.58510307 1312.27714669 123.875 1312.375 C115.40715885 1313.0161947 107.11509845 1314.65249545 98.82852173 1316.47850037 C92.33243062 1317.87109847 85.90244153 1318.61078289 79.28125 1319.1015625 C77.6018634 1319.22707993 77.6018634 1319.22707993 75.8885498 1319.35513306 C63.39993521 1320.21300227 50.91925235 1320.37217389 38.40478516 1320.37060547 C34.50249114 1320.3749972 30.60131612 1320.41156221 26.69921875 1320.44921875 C12.05757737 1320.51301951 -1.91069728 1319.54241538 -16.32885742 1316.95947266 C-21.80626238 1315.98046448 -27.26881976 1315.43469518 -32.8125 1315 C-39.47638953 1314.40943953 -45.35398032 1313.2225476 -51.70703125 1311.01171875 C-56.40080883 1309.56962101 -61.15871079 1308.80355969 -66.00268555 1308.03930664 C-73.27015225 1306.87633904 -80.06610829 1304.71492288 -86.9375 1302.125 C-87.64841797 1301.85888916 -88.35933594 1301.59277832 -89.09179688 1301.31860352 C-92.50313337 1300.02209166 -95.79437075 1298.69450037 -99 1296.9375 C-103.44671439 1294.54540587 -108.30669012 1293.30476893 -113.12109375 1291.86621094 C-118.05810737 1290.36597476 -122.48893391 1288.53747468 -127 1286 C-127 1285.34 -127 1284.68 -127 1284 C-128.14210938 1283.74992187 -129.28421875 1283.49984375 -130.4609375 1283.2421875 C-135.13304108 1282.07158999 -139.30101857 1280.21699821 -143.625 1278.125 C-144.34945312 1277.78597656 -145.07390625 1277.44695312 -145.8203125 1277.09765625 C-150.13607016 1275.04141664 -154.17651212 1272.88269275 -158 1270 C-158 1269.34 -158 1268.68 -158 1268 C-158.66 1267.79375 -159.32 1267.5875 -160 1267.375 C-163.45494442 1265.79148381 -166.09373259 1263.72210569 -169.03515625 1261.33984375 C-171.05322198 1259.96370747 -172.61431945 1259.4303789 -175 1259 C-175 1258.34 -175 1257.68 -175 1257 C-175.78375 1256.71125 -176.5675 1256.4225 -177.375 1256.125 C-180 1255 -180 1255 -182 1253 C-183.2684375 1252.5359375 -183.2684375 1252.5359375 -184.5625 1252.0625 C-185.7690625 1251.5365625 -185.7690625 1251.5365625 -187 1251 C-187.33 1250.01 -187.66 1249.02 -188 1248 C-189.30788799 1247.28470199 -190.64831949 1246.62863506 -192 1246 C-207.03168616 1235.82299174 -219.97556614 1222.34748113 -231 1208 C-236.12575045 1201.4068038 -236.12575045 1201.4068038 -241.75 1195.25 C-246.34876763 1190.65123237 -248.51286683 1186.19638823 -250 1180 C-250.66 1180 -251.32 1180 -252 1180 C-256.62933592 1174.62399699 -259.33482246 1168.23727276 -261.9140625 1161.70703125 C-262.98533714 1158.90792477 -262.98533714 1158.90792477 -264.5625 1156 C-267.19700622 1150.50190006 -270 1144.14913509 -270 1138 C-270.66 1138 -271.32 1138 -272 1138 C-272.26554687 1136.89140625 -272.53109375 1135.7828125 -272.8046875 1134.640625 C-273.16120621 1133.17702189 -273.51799103 1131.71348359 -273.875 1130.25 C-274.04902344 1129.52039062 -274.22304688 1128.79078125 -274.40234375 1128.0390625 C-274.66337891 1126.97558594 -274.66337891 1126.97558594 -274.9296875 1125.890625 C-275.08679199 1125.24125977 -275.24389648 1124.59189453 -275.40576172 1123.92285156 C-275.94277398 1121.96355256 -275.94277398 1121.96355256 -276.99072266 1120.16943359 C-278.3305976 1117.28938309 -278.72048539 1114.53414255 -279.21875 1111.3984375 C-279.42886719 1110.10292969 -279.63898438 1108.80742188 -279.85546875 1107.47265625 C-280.07064541 1106.10682324 -280.28548714 1104.74093742 -280.5 1103.375 C-282.35057854 1091.75165802 -282.35057854 1091.75165802 -284.55322266 1080.19091797 C-285.25194195 1076.76452073 -285.84366156 1073.32084765 -286.4375 1069.875 C-287.38904919 1064.37992481 -288.41277451 1058.90778112 -289.5 1053.4375 C-291.02758067 1045.60255369 -291.93286172 1037.7068523 -292.875 1029.78393555 C-293.69755094 1023.01770436 -294.81422041 1016.44192698 -296.24609375 1009.77734375 C-297.3442741 1004.27506189 -298.14159562 998.73629194 -298.94091797 993.18383789 C-299.56918498 988.82476621 -300.27441113 984.50975159 -301.125 980.1875 C-302.26622832 973.53657101 -302.36423462 966.83752229 -302.61035156 960.10742188 C-303.76245186 929.88173184 -308.35186772 899.80438656 -312.67138672 869.90551758 C-313.20367762 866.2122413 -313.73091413 862.5182676 -314.2578125 858.82421875 C-314.41823029 857.72607346 -314.57864807 856.62792816 -314.743927 855.49650574 C-315.67975563 848.92436957 -316.33026497 842.38837456 -316.74446106 835.76216125 C-317.06043263 832.34677401 -317.98806489 829.26993934 -319 826 C-319.42972567 823.17708665 -319.68015605 820.34314091 -319.9375 817.5 C-321.00316731 806.96341734 -323.07910173 796.79732314 -325.5625 786.5 C-326.60201273 782.10328544 -327.3053761 777.80054647 -327.8125 773.3125 C-328.8412271 764.88045481 -330.81057411 756.70380303 -332.79223633 748.45043945 C-334.20019826 742.5718079 -335.45885083 736.70984543 -336.49951172 730.75537109 C-337.58769104 724.76454582 -338.9321614 718.82088559 -340.23242188 712.87304688 C-341.4218031 707.292657 -342.34214429 701.81028383 -342.81201172 696.12182617 C-343.05442069 693.38575293 -343.50260299 690.70015521 -344 688 C-344.66 688 -345.32 688 -346 688 C-348.83681696 677.78521639 -351.44069708 667.64953792 -353.09887695 657.17016602 C-353.38903798 653.79562178 -353.38903798 653.79562178 -355 651 C-355.24526732 648.84255602 -355.38317795 646.68617221 -355.5234375 644.51953125 C-355.88766119 641.89155384 -355.88766119 641.89155384 -357.41015625 639.40234375 C-359.62675502 634.65871346 -360.25769552 629.89677432 -361.0625 624.75 C-361.38548017 622.76542303 -361.70968952 620.78104569 -362.03515625 618.796875 C-362.19169678 617.81323975 -362.3482373 616.82960449 -362.50952148 615.81616211 C-362.94814982 613.29770623 -363.50867008 610.84845115 -364.1015625 608.36328125 C-365.48004894 601.58341983 -365.33495052 594.6875023 -365.31567383 587.79858398 C-365.31253851 585.46614686 -365.33595317 583.13501333 -365.36132812 580.80273438 C-365.42848925 565.48665903 -362.70133996 551.36222517 -358.375 536.6875 C-357.75757335 534.54564184 -357.14037573 532.40371764 -356.5234375 530.26171875 C-356.25450684 529.34350342 -355.98557617 528.42528809 -355.70849609 527.47924805 C-355.09369787 525.32787798 -354.52667336 523.17435411 -354 521 C-353.34 521 -352.68 521 -352 521 C-351.83564453 519.80503906 -351.83564453 519.80503906 -351.66796875 518.5859375 C-350.81008432 512.8527586 -350.03978343 507.97419107 -347 503 C-346.34 503 -345.68 503 -345 503 C-344.91363281 502.40574219 -344.82726562 501.81148437 -344.73828125 501.19921875 C-343.70493145 495.10340294 -341.84512226 489.99036756 -339.12109375 484.4453125 C-338.1287914 482.28091783 -337.48079315 480.32293318 -337 478 C-336.34 478 -335.68 478 -335 478 C-334.7525 476.72125 -334.505 475.4425 -334.25 474.125 C-331.80618851 463.24664468 -326.67675799 452.70594674 -320.6875 443.34765625 C-317.46132485 438.24866676 -314.71084164 432.91731688 -311.9375 427.5625 C-311.1630957 426.08426758 -311.1630957 426.08426758 -310.37304688 424.57617188 C-307.66792112 419.37612759 -305.1137095 414.17070806 -302.86157227 408.75756836 C-302 407 -302 407 -300 405 C-299.28591666 403.01643517 -298.61382258 401.01684563 -298 399 C-297.34 399 -296.68 399 -296 399 C-294.69494635 396.49028144 -293.60854677 394.01285708 -292.5625 391.375 C-291 388 -291 388 -288 386 C-287.71125 385.278125 -287.4225 384.55625 -287.125 383.8125 C-285.49060512 379.72651279 -283.04801683 375.02400841 -279 373 C-278.29335621 371.35116448 -277.59088769 369.70036069 -276.9140625 368.0390625 C-274.4549008 362.55324025 -271.22626996 358.22626996 -267 354 C-266.70222656 353.25234375 -266.40445313 352.5046875 -266.09765625 351.734375 C-264.88834621 348.72185888 -263.36821076 346.17411252 -261.625 343.4375 C-261.03976562 342.50808594 -260.45453125 341.57867188 -259.8515625 340.62109375 C-258.07686724 338.10881417 -256.17032257 336.16614083 -254 334 C-250.31133597 328.98030173 -246.53812374 323.82776268 -244.25 318 C-242.91398051 314.79355322 -241.42074879 313.42074879 -239 311 C-238.505 309.845 -238.01 308.69 -237.5 307.5 C-235.98715897 303.9700376 -234.68636557 302.62021276 -232 300 C-229.68751736 296.9831506 -227.57729686 293.82859662 -225.4375 290.6875 C-224.86064453 289.85798828 -224.28378906 289.02847656 -223.68945312 288.17382812 C-220.52851987 283.55456349 -218.08759012 279.18169689 -216 274 C-214.88627145 272.04386887 -213.74061383 270.10554278 -212.5625 268.1875 C-208.79533605 261.83736499 -206.09398366 255.4642816 -203.875 248.4375 C-203 246 -203 246 -201 245 C-200.14284003 242.4405504 -199.39138487 239.91432514 -198.6875 237.3125 C-196.81470529 230.66779382 -194.70257937 224.18233623 -192.33203125 217.6953125 C-190.74585486 213.29495219 -189.23742225 208.87204803 -187.75 204.4375 C-187.49162354 203.6751001 -187.23324707 202.9127002 -186.96704102 202.12719727 C-185.73516265 198.43895099 -184.63997265 194.84745465 -184 191 C-183.34 191 -182.68 191 -182 191 C-181.95029053 190.35168213 -181.90058105 189.70336426 -181.84936523 189.03540039 C-181.24652518 181.77230604 -180.24393354 174.627116 -179.0625 167.4375 C-178.89298828 166.37853516 -178.72347656 165.31957031 -178.54882812 164.22851562 C-175.7291991 146.82829544 -175.7291991 146.82829544 -172.78515625 138.484375 C-171.52320966 134.49134998 -170.70278989 130.40437322 -169.84375 126.30859375 C-169.03603958 123.14132189 -167.99348198 120.22460383 -166.81591797 117.18383789 C-165.31866311 113.17637389 -164.08282644 109.08386425 -162.8125 105 C-162.53986328 104.12988281 -162.26722656 103.25976562 -161.98632812 102.36328125 C-161.32222219 100.24280267 -160.66015226 98.12171208 -160 96 C-159.34 96 -158.68 96 -158 96 C-157.87044922 94.89205078 -157.87044922 94.89205078 -157.73828125 93.76171875 C-156.81177419 87.07216777 -155.2139525 81.52698326 -152.21875 75.47265625 C-150.96691829 73.02354565 -150.96691829 73.02354565 -150.01953125 70.4765625 C-148.95655038 67.89445572 -147.66885468 65.67719546 -146.1875 63.3125 C-144.07608326 59.88527282 -142.24519886 56.46763394 -140.5625 52.8125 C-138.53368416 48.65764073 -136.20304963 45.83008472 -132.8203125 42.7109375 C-130.901141 40.90708103 -129.21043431 39.00189845 -127.5 37 C-119.14294833 27.38846817 -107.65968123 15.05578512 -95 12 C-94.566875 11.525625 -94.13375 11.05125 -93.6875 10.5625 C-91.15934702 8.22161761 -88.28887243 7.80670456 -85 7 C-85 6.34 -85 5.68 -85 5 C-82.49045054 3.99438447 -79.97979867 2.99203152 -77.46484375 2 C-76.63082031 1.67 -75.79679687 1.34 -74.9375 1 C-74.10089844 0.67 -73.26429688 0.34 -72.40234375 0 C-70.05336763 -0.92681215 -70.05336763 -0.92681215 -68.140625 -2.0234375 C-47.57188814 -11.40698534 -20.48851865 -6.37688607 0 0 Z " fill="#E0B2CE" transform="translate(629,277)"/>
<path d="M0 0 C11.45639863 8.24981136 19.73171229 17.90034551 24.97265625 31.140625 C25.63265625 32.130625 26.29265625 33.120625 26.97265625 34.140625 C27.52542217 36.10570783 28.01993147 38.08761226 28.47265625 40.078125 C29.37997036 44.22691185 29.37997036 44.22691185 31.03125 48.1015625 C32.36464171 50.98965576 32.36875103 53.66642584 32.53515625 56.828125 C32.40348439 60.80333113 32.40348439 60.80333113 33.97265625 64.140625 C34.23153373 67.65309203 34.16292202 71.18229592 34.16015625 74.703125 C34.15935059 75.7442041 34.15854492 76.7852832 34.15771484 77.85791016 C33.83623681 118.77386896 15.37257299 157.64935907 -13.28515625 186.40625 C-19.74436496 192.50306087 -26.91796049 197.37337041 -34.40063477 202.1105957 C-35.77208605 202.97899627 -37.12817422 203.87159045 -38.48046875 204.76953125 C-41.85112498 206.58410232 -45.30287959 207.62527668 -48.96484375 208.703125 C-50.34910697 209.12060121 -51.73322396 209.53856265 -53.1171875 209.95703125 C-54.12313965 210.25383789 -54.12313965 210.25383789 -55.14941406 210.55664062 C-56.77038093 211.06071665 -58.36213014 211.6570283 -59.9453125 212.26953125 C-64.13135508 213.45265862 -68.07031224 213.5239263 -72.40234375 213.515625 C-73.71875854 213.51320801 -73.71875854 213.51320801 -75.06176758 213.51074219 C-87.94015533 213.27283663 -101.31241669 210.14964731 -111.83984375 202.453125 C-114.65950227 200.07792557 -114.65950227 200.07792557 -117.015625 199.71875 C-121.09598609 198.54614138 -123.4604246 194.34093978 -126.02734375 191.140625 C-126.58164063 190.46 -127.1359375 189.779375 -127.70703125 189.078125 C-130.95640942 184.9396135 -132.97616926 181.01867194 -135.02734375 176.140625 C-135.57132813 175.0990625 -136.1153125 174.0575 -136.67578125 172.984375 C-150.35861784 146.48548785 -150.61832148 112.24187985 -142.15234375 83.953125 C-141.4676909 82.00713095 -140.75873445 80.0695392 -140.02734375 78.140625 C-139.37176104 76.26668525 -138.71620841 74.39273461 -138.06201172 72.51831055 C-137.07733626 69.7155204 -136.06117378 66.9256365 -135.02734375 64.140625 C-134.68960937 63.2021875 -134.351875 62.26375 -134.00390625 61.296875 C-133.02734375 59.140625 -133.02734375 59.140625 -131.02734375 58.140625 C-130.67671875 57.08875 -130.32609375 56.036875 -129.96484375 54.953125 C-126.76399174 45.88948794 -120.24237557 37.38948107 -114.31640625 29.88671875 C-112.93507739 28.09662247 -112.93507739 28.09662247 -111.73046875 25.78125 C-109.62197863 22.51212312 -107.01863071 20.03931877 -104.15234375 17.453125 C-103.58370605 16.93637207 -103.01506836 16.41961914 -102.42919922 15.88720703 C-86.12869124 1.26199171 -86.12869124 1.26199171 -77.02734375 -0.859375 C-77.02734375 -1.519375 -77.02734375 -2.179375 -77.02734375 -2.859375 C-74.05734375 -3.354375 -74.05734375 -3.354375 -71.02734375 -3.859375 C-71.02734375 -4.519375 -71.02734375 -5.179375 -71.02734375 -5.859375 C-69.70734375 -5.859375 -68.38734375 -5.859375 -67.02734375 -5.859375 C-67.02734375 -6.519375 -67.02734375 -7.179375 -67.02734375 -7.859375 C-43.91665781 -15.08953373 -20.62850858 -13.50642377 0 0 Z " fill="#5C9EB5" transform="translate(1170.02734375,682.859375)"/>
<path d="M0 0 C0.83104248 0.17362061 1.66208496 0.34724121 2.51831055 0.52612305 C4.53087339 0.98357171 6.51922922 1.54515898 8.5 2.125 C8.995 3.115 8.995 3.115 9.5 4.125 C11.54256899 5.2180369 11.54256899 5.2180369 13.9375 6.1875 C14.74058594 6.52910156 15.54367187 6.87070312 16.37109375 7.22265625 C17.07363281 7.52042969 17.77617188 7.81820312 18.5 8.125 C19.49 8.62 19.49 8.62 20.5 9.125 C20.5 9.785 20.5 10.445 20.5 11.125 C21.5725 11.3725 22.645 11.62 23.75 11.875 C27.6238218 13.16627393 28.8334254 14.19176794 31.5 17.125 C32.25023437 17.55167969 33.00046875 17.97835937 33.7734375 18.41796875 C36.98912746 20.43123023 39.3525592 22.78562952 42 25.5 C43.37671875 26.90378906 43.37671875 26.90378906 44.78125 28.3359375 C45.6784375 29.25632812 46.575625 30.17671875 47.5 31.125 C48.35980469 31.96933594 49.21960938 32.81367187 50.10546875 33.68359375 C52.34453382 35.96649044 54.3482551 38.29193301 56.3125 40.8125 C56.91707031 41.57949219 57.52164063 42.34648438 58.14453125 43.13671875 C59.5 45.125 59.5 45.125 59.5 47.125 C60.49 47.455 61.48 47.785 62.5 48.125 C63.78121854 50.26234601 64.87750832 52.31916686 65.9375 54.5625 C66.24389404 55.19196533 66.55028809 55.82143066 66.8659668 56.4699707 C69.01670832 60.94494651 70.94651731 65.48100815 72.67578125 70.13671875 C73.53113341 72.38164188 73.53113341 72.38164188 75.5 75.125 C76.18328674 78.30174674 76.75145832 81.46911973 77.26757812 84.67578125 C77.85303182 88.5082356 77.85303182 88.5082356 79.99560547 91.60058594 C82.67503442 94.31567103 82.67709278 98.23113325 83.1875 101.875 C83.31342529 102.75027344 83.43935059 103.62554688 83.5690918 104.52734375 C87.0562609 131.31031345 83.44573092 156.63030942 68.9296875 179.73828125 C67.41192197 182.16933874 67.41192197 182.16933874 66.15234375 185.09765625 C64.25825712 188.56790954 62.14531266 190.63992465 59.1875 193.25 C58.26324219 194.07757812 57.33898437 194.90515625 56.38671875 195.7578125 C48.62211221 202.125 48.62211221 202.125 45.5 202.125 C45.5 202.785 45.5 203.445 45.5 204.125 C34.59250436 209.09902 25.50952341 212.31079743 13.4375 212.25 C12.50244629 212.24734131 11.56739258 212.24468262 10.60400391 212.24194336 C-6.50026217 212.12491261 -6.50026217 212.12491261 -12.5 210.125 C-12.5 209.465 -12.5 208.805 -12.5 208.125 C-13.74716797 207.85236328 -13.74716797 207.85236328 -15.01953125 207.57421875 C-16.64955078 207.19716797 -16.64955078 207.19716797 -18.3125 206.8125 C-19.39144531 206.56886719 -20.47039062 206.32523438 -21.58203125 206.07421875 C-24.57190897 205.10160793 -25.49323689 204.42005865 -27.5 202.125 C-28.93370527 201.06985736 -30.39423726 200.05051746 -31.875 199.0625 C-32.62523437 198.55589844 -33.37546875 198.04929687 -34.1484375 197.52734375 C-36.41070016 196.05591934 -36.41070016 196.05591934 -38.8046875 195.3984375 C-43.04828449 193.39349167 -45.98031197 190.12870564 -49.25 186.8125 C-49.95648682 186.10206543 -50.66297363 185.39163086 -51.39086914 184.65966797 C-57.67649635 178.20174291 -63.44490914 171.23518172 -67.5 163.125 C-68.11359375 162.87492188 -68.7271875 162.62484375 -69.359375 162.3671875 C-72.41343296 160.59494219 -73.22653436 158.3969568 -74.75 155.25 C-75.27078125 154.20070313 -75.7915625 153.15140625 -76.328125 152.0703125 C-77.5 149.125 -77.5 149.125 -77.5 145.125 C-78.49 144.795 -79.48 144.465 -80.5 144.125 C-81.45974102 141.65193694 -82.23121775 139.29555293 -82.9375 136.75 C-83.36724608 135.27139318 -83.7995455 133.79352612 -84.234375 132.31640625 C-84.44642578 131.59340332 -84.65847656 130.87040039 -84.87695312 130.12548828 C-85.66895526 127.5825159 -86.66864288 125.14720358 -87.6875 122.6875 C-94.80234939 103.15767051 -95.5463115 70.27594953 -87.5 51.125 C-87.11908203 50.10792969 -87.11908203 50.10792969 -86.73046875 49.0703125 C-84.42886283 43.33206213 -81.17707288 38.29685932 -77.76123047 33.1730957 C-75.98595446 30.50105822 -74.38735849 27.89064715 -72.99609375 24.99609375 C-71.38007796 21.8948624 -69.60434553 19.82895974 -67.125 17.375 C-66.37476563 16.61703125 -65.62453125 15.8590625 -64.8515625 15.078125 C-62.43695026 13.0726331 -60.40346822 12.23922905 -57.5 11.125 C-56.17543495 10.06052161 -54.88454499 8.95317227 -53.625 7.8125 C-39.00134139 -3.96015962 -17.46616243 -3.66704825 0 0 Z " fill="#88427D" transform="translate(626.5,860.875)"/>
<path d="M0 0 C1.11563018 3.37046018 0.86843709 5.74019241 0.125 9.1875 C-0.05804688 10.06792969 -0.24109375 10.94835937 -0.4296875 11.85546875 C-1 14 -1 14 -2 15 C-2.92445754 20.11407286 -3.17234289 25.15254779 -3.203125 30.3359375 C-3.21000336 31.12481857 -3.21688171 31.91369965 -3.22396851 32.72648621 C-3.24111953 35.27603792 -3.2474298 37.82539357 -3.25 40.375 C-3.25167175 41.24260956 -3.25334351 42.11021912 -3.25506592 43.00411987 C-3.31831415 67.87454188 -3.31831415 67.87454188 2 92 C2.22663986 94.71061275 2.0940868 97.27148292 2 100 C-0.00814678 96.98777983 -0.43178644 95.50733473 -1 92.02734375 C-1.165 91.04443359 -1.33 90.06152344 -1.5 89.04882812 C-1.665 88.02208984 -1.83 86.99535156 -2 85.9375 C-2.33207811 83.92557367 -2.66540205 81.91385255 -3 79.90234375 C-3.16282471 78.89985596 -3.32564941 77.89736816 -3.4934082 76.86450195 C-3.94210526 74.32736336 -4.50804785 71.85635043 -5.10546875 69.3515625 C-6.48120536 62.57616094 -6.33493717 55.68273225 -6.31567383 48.79858398 C-6.31253851 46.46614686 -6.33595317 44.13501333 -6.36132812 41.80273438 C-6.42145548 27.40893042 -4.1998818 13.79110124 0 0 Z " fill="#EED3E2" transform="translate(270,816)"/>
<path d="M0 0 C1.33850372 2.67700745 0.50061952 4.14871365 -0.30969238 6.91033936 C-3.23018519 16.91095055 -3.62969247 26.39079758 -3.5 36.75 C-3.49612274 37.57785004 -3.49224548 38.40570007 -3.48825073 39.25863647 C-4.39852509 59.33027685 -4.39852509 59.33027685 2 77 C2.04080783 78.99958364 2.04254356 81.00045254 2 83 C-10.21993702 64.67009447 -8.09089752 32.81981916 -5 12 C-3.90152884 7.48980664 -2.57839385 3.86759078 0 0 Z " fill="#AD709E" transform="translate(541,909)"/>
<path d="M0 0 C1.75666949 3.18633989 2.69739297 6.28413153 3.5625 9.8125 C3.93568359 11.30716797 3.93568359 11.30716797 4.31640625 12.83203125 C5.98826106 20.5798841 6.30499816 28.25439606 6.60546875 36.14453125 C6.64285156 37.01207031 6.68023438 37.87960937 6.71875 38.7734375 C6.74904297 39.56153809 6.77933594 40.34963867 6.81054688 41.16162109 C6.80635975 43.01665808 6.80635975 43.01665808 8 44 C8.10027196 46.02795315 8.13081419 48.05941413 8.1328125 50.08984375 C8.13474609 51.97993164 8.13474609 51.97993164 8.13671875 53.90820312 C8.13357666 54.90219116 8.13357666 54.90219116 8.13037109 55.91625977 C8.12510511 57.89794335 8.13080034 59.87964638 8.13671875 61.86132812 C8.12951244 68.97034897 7.91197776 75.94619476 7 83 C6.67 83 6.34 83 6 83 C5.97494385 81.95884033 5.9498877 80.91768066 5.92407227 79.8449707 C5.66018245 68.97618155 5.37290043 58.10818082 5.06317139 47.24060059 C5.00780027 45.27666465 4.95509737 43.31265386 4.90283203 41.34863281 C4.63852369 31.89624991 4.16075322 23.07244492 1.69921875 13.88671875 C0.59052237 9.30947502 0.27265672 4.69157598 0 0 Z " fill="#D9EAED" transform="translate(1551,481)"/>
<path d="M0 0 C0.66 0 1.32 0 2 0 C5.79103506 20.60247032 7.44307506 41.75033554 1 62 C-0.4523378 58.04923494 0.36228499 54.35916449 0.9375 50.3125 C1.91349261 42.55562849 2.22728495 34.8782248 2.25 27.0625 C2.25894287 26.03358643 2.26788574 25.00467285 2.27709961 23.94458008 C2.25427494 17.90866948 1.68002475 12.28025746 0.42871094 6.37280273 C0 4 0 4 0 0 Z " fill="#AD719F" transform="translate(706,954)"/>
<path d="M0 0 C0.66 0.33 1.32 0.66 2 1 C0.79839233 2.17018677 0.79839233 2.17018677 -0.42749023 3.36401367 C-3.45180259 6.31486629 -6.46198683 9.2798089 -9.46850586 12.2487793 C-10.76135666 13.52175241 -12.05780254 14.79108662 -13.3581543 16.05639648 C-26.99354917 28.89249286 -26.99354917 28.89249286 -36 45 C-36.66 45 -37.32 45 -38 45 C-32.39132634 29.16718166 -17.76455982 16.17865164 -5.6875 5.1875 C-5.13771484 4.68541016 -4.58792969 4.18332031 -4.02148438 3.66601562 C-2.68194761 2.44296032 -1.34111008 1.22132992 0 0 Z " fill="#CCE2E7" transform="translate(900,187)"/>
<path d="M0 0 C1.50721003 2.75003111 2.32531998 5.06524716 2.74609375 8.16796875 C2.85969238 8.96992676 2.97329102 9.77188477 3.09033203 10.59814453 C3.20489746 11.45263184 3.31946289 12.30711914 3.4375 13.1875 C4.25366805 19.00809457 5.11722436 24.79613911 6.22949219 30.56787109 C8.0474454 40.0234722 8.67390046 49.38568605 9 59 C8.67 59 8.34 59 8 59 C7.80664062 57.74445313 7.61328125 56.48890625 7.4140625 55.1953125 C7.15115467 53.50519075 6.88812741 51.81508758 6.625 50.125 C6.49867188 49.30257813 6.37234375 48.48015625 6.2421875 47.6328125 C5.58571224 43.43137084 4.86584971 39.26128924 4 35.09765625 C2.86449195 29.5344289 2.09948834 23.94207014 1.375 18.3125 C1.17390625 16.82266602 1.17390625 16.82266602 0.96875 15.30273438 C0.29830008 10.15463676 -0.15972746 5.19114251 0 0 Z " fill="#F0DAE7" transform="translate(330,1271)"/>
<path d="M0 0 C1.918125 0.185625 1.918125 0.185625 3.875 0.375 C4.79925781 0.46265625 5.72351563 0.5503125 6.67578125 0.640625 C9.05347814 0.89767331 11.42589481 1.20558731 13.79296875 1.546875 C22.94497976 2.8246989 31.82384077 3.10771327 41.0625 2.75 C42.10865479 2.71148926 43.15480957 2.67297852 44.23266602 2.63330078 C49.70261734 2.36643121 54.77852529 1.79025029 60.06030273 0.31347656 C62.31296117 -0.05057799 63.84271934 0.31491966 66 1 C64.25365495 1.49232068 62.50259022 1.9678957 60.75 2.4375 C59.77546875 2.70433594 58.8009375 2.97117187 57.796875 3.24609375 C39.53199642 6.87276203 17.5954884 7.6019923 0 1 C0 0.67 0 0.34 0 0 Z " fill="#D1E5E9" transform="translate(994,1413)"/>
<path d="M0 0 C5.75 0.875 5.75 0.875 8 2 C8 2.66 8 3.32 8 4 C16.63140816 4.74248672 25.21185276 5.10653339 33.875 5.125 C35.17473755 5.13176758 35.17473755 5.13176758 36.50073242 5.13867188 C42.07421399 5.12588499 47.47062002 4.70373927 53 4 C52.67 4.66 52.34 5.32 52 6 C45.46005497 8.11279046 38.56573793 8.35579069 31.75 8.3125 C30.38464111 8.30621582 30.38464111 8.30621582 28.99169922 8.29980469 C18.67707768 8.12859253 8.68491295 6.99672561 0 1 C0 0.67 0 0.34 0 0 Z " fill="#BA82AB" transform="translate(606,1067)"/>
<path d="M0 0 C1.32 0.33 2.64 0.66 4 1 C-0.29 5.29 -4.58 9.58 -9 14 C-9.33 12.68 -9.66 11.36 -10 10 C-8.05078125 7.38671875 -8.05078125 7.38671875 -5.3125 4.6875 C-4.42175781 3.78386719 -3.53101563 2.88023437 -2.61328125 1.94921875 C-1.75089844 1.30597656 -0.88851562 0.66273438 0 0 Z " fill="#A26395" transform="translate(564,874)"/>
<path d="M0 0 C1.35308008 3.38270019 0.61448023 5.63575878 -0.40771484 9.02758789 C-0.9994783 10.99826264 -1.54201406 12.97628551 -2.0703125 14.96484375 C-2.24433594 15.61904297 -2.41835938 16.27324219 -2.59765625 16.94726562 C-2.77167969 17.60404297 -2.94570313 18.26082031 -3.125 18.9375 C-3.30675781 19.62134766 -3.48851562 20.30519531 -3.67578125 21.00976562 C-4.11776586 22.6730235 -4.55896638 24.3364897 -5 26 C-5.33 26 -5.66 26 -6 26 C-6.26358917 19.98475999 -5.49574117 15.30223166 -3.5625 9.625 C-3.33240234 8.91472656 -3.10230469 8.20445312 -2.86523438 7.47265625 C-2.02688759 4.91144607 -1.2069638 2.4139276 0 0 Z " fill="#F1DCE8" transform="translate(461,395)"/>
<path d="M0 0 C-3.36858735 1.34994814 -6.74577945 2.67691894 -10.125 4 C-11.07632813 4.3815625 -12.02765625 4.763125 -13.0078125 5.15625 C-21.76946504 8.56355932 -21.76946504 8.56355932 -27 8 C-23.85616517 5.29885313 -21.21653896 4.36890699 -17.1875 3.5 C-13.59894776 2.67826088 -10.32408399 1.83633076 -7 0.25 C-3.78910664 -1.08787223 -3.13685801 -1.00054954 0 0 Z " fill="#F1DCE8" transform="translate(819,1571)"/>
<path d="M0 0 C6.31314633 1.31769721 9.59640695 5.13081893 13.875 9.625 C14.56335938 10.33140625 15.25171875 11.0378125 15.9609375 11.765625 C17.65007434 13.50168231 19.32913151 15.24638373 21 17 C20.67 17.66 20.34 18.32 20 19 C19.11957031 18.09636719 18.23914063 17.19273437 17.33203125 16.26171875 C16.15912494 15.07004593 14.98593272 13.87865447 13.8125 12.6875 C13.23435547 12.09259766 12.65621094 11.49769531 12.06054688 10.88476562 C8.88665803 7.67501363 5.9306825 5.26904407 2 3 C1.34 2.01 0.68 1.02 0 0 Z " fill="#BF87AF" transform="translate(654,874)"/>
<path d="M0 0 C7.95800678 2.292985 14.81917721 5.94899487 22 10 C19.53847306 10.89753304 18.38006044 11.14514362 15.89355469 10.19555664 C15.16040039 9.77137451 14.42724609 9.34719238 13.671875 8.91015625 C12.87265625 8.45576172 12.0734375 8.00136719 11.25 7.53320312 C10.425 7.04787109 9.6 6.56253906 8.75 6.0625 C7.90953125 5.58103516 7.0690625 5.09957031 6.203125 4.60351562 C4.12884253 3.41316035 2.06180335 2.21180052 0 1 C0 0.67 0 0.34 0 0 Z " fill="#D7E9EC" transform="translate(1405,293)"/>
<path d="M0 0 C1.62356703 3.24713407 0.03251982 6.39638372 -0.875 9.75 C-2.13279183 14.48623681 -3.28215536 19.14309374 -4 24 C-4.33 24 -4.66 24 -5 24 C-5.40815839 15.06586643 -5.0592912 7.5889368 0 0 Z " fill="#BE86AE" transform="translate(541,909)"/>
<path d="M0 0 C0.66 0.33 1.32 0.66 2 1 C-2.32893185 6.18419194 -6.76564995 10.72706118 -12 15 C-12 12 -12 12 -9.375 9.08203125 C-8.25750594 7.98449244 -7.13214357 6.89492105 -6 5.8125 C-5.42765625 5.25369141 -4.8553125 4.69488281 -4.265625 4.11914062 C-2.85037212 2.73926907 -1.42602845 1.36873266 0 0 Z " fill="#EACADD" transform="translate(512,303)"/>
<path d="M0 0 C5.87876496 -0.16032995 11.23388095 0.3907466 17 1.5 C18.16208984 1.71462891 18.16208984 1.71462891 19.34765625 1.93359375 C21.23295579 2.28272329 23.11665939 2.64045316 25 3 C25 3.33 25 3.66 25 4 C16.46866291 4.13760221 8.04265768 4.1747333 0 1 C0 0.67 0 0.34 0 0 Z " fill="#EAC9DC" transform="translate(581,1588)"/>
<path d="M0 0 C1.85542389 2.78313584 2.32271791 3.84633727 2.81640625 6.9765625 C2.94080078 7.729375 3.06519531 8.4821875 3.19335938 9.2578125 C3.37608398 10.42957031 3.37608398 10.42957031 3.5625 11.625 C3.94934869 16.72239947 3.94934869 16.72239947 6 21 C6.04080783 22.99958364 6.04254356 25.00045254 6 27 C0.86033518 19.29050277 0.46420977 9.02807969 0 0 Z " fill="#A16294" transform="translate(537,965)"/>
<path d="M0 0 C0.66 0.33 1.32 0.66 2 1 C0.13128235 2.92314631 -1.74452468 4.8384057 -3.625 6.75 C-4.14707031 7.28882813 -4.66914062 7.82765625 -5.20703125 8.3828125 C-8.57102984 11.78834194 -11.92722989 14.48050858 -16 17 C-14.69725731 14.09105036 -13.36041703 12.14926284 -10.99609375 10.01953125 C-10.42052734 9.49552734 -9.84496094 8.97152344 -9.25195312 8.43164062 C-8.65318359 7.89732422 -8.05441406 7.36300781 -7.4375 6.8125 C-6.83486328 6.26658203 -6.23222656 5.72066406 -5.61132812 5.15820312 C-4.07726459 3.76876511 -2.5389578 2.38401511 -1 1 C-0.67 0.67 -0.34 0.34 0 0 Z " fill="#7BAEC1" transform="translate(1074,693)"/>
<path d="M0 0 C-2.55986879 0.84226 -5.12239015 1.67398551 -7.6875 2.5 C-8.7693457 2.85771484 -8.7693457 2.85771484 -9.87304688 3.22265625 C-13.69407657 4.44398994 -16.93442056 5.32075577 -21 5 C-19.66666667 4.33333333 -18.33333333 3.66666667 -17 3 C-16.07960938 2.50693359 -16.07960938 2.50693359 -15.140625 2.00390625 C-12.92865944 0.96654284 -10.8794879 0.35440392 -8.5 -0.1875 C-7.7471875 -0.36667969 -6.994375 -0.54585937 -6.21875 -0.73046875 C-3.85166621 -1.01801942 -2.25455985 -0.72248395 0 0 Z " fill="#DEECEF" transform="translate(1090,1407)"/>
<path d="M0 0 C2.3395606 4.6791212 3.22366429 7.80043887 3.5625 13.125 C3.64628906 14.40632812 3.73007812 15.68765625 3.81640625 17.0078125 C3.87699219 17.99523437 3.93757813 18.98265625 4 20 C-0.01984912 13.97022631 -0.25729264 7.07554765 0 0 Z " fill="#F0DAE7" transform="translate(284,965)"/>
<path d="M0 0 C0.90457722 2.47510086 1.16843185 3.59237953 0.14453125 6.0703125 C-0.29503906 6.74835938 -0.73460937 7.42640625 -1.1875 8.125 C-1.61417969 8.80820313 -2.04085937 9.49140625 -2.48046875 10.1953125 C-4.15678371 12.18620585 -5.61635587 13.00979238 -8 14 C-6.46162154 10.80375738 -4.71133468 7.78394426 -2.875 4.75 C-2.33617187 3.85796875 -1.79734375 2.9659375 -1.2421875 2.046875 C-0.62730469 1.03367187 -0.62730469 1.03367187 0 0 Z " fill="#BB82AB" transform="translate(700,1032)"/>
<path d="M0 0 C0.66 0 1.32 0 2 0 C3.03572896 1.74122549 4.0531252 3.49336595 5.0625 5.25 C5.63097656 6.22453125 6.19945312 7.1990625 6.78515625 8.203125 C8 11 8 11 7.68359375 13.359375 C7.45800781 13.90078125 7.23242188 14.4421875 7 15 C5.82823482 12.87767021 4.66245215 10.75242209 3.5 8.625 C3.16613281 8.02171875 2.83226562 7.4184375 2.48828125 6.796875 C0 2.2265625 0 2.2265625 0 0 Z " fill="#B378A4" transform="translate(549,1008)"/>
<path d="M0 0 C2.18092036 2.07858979 3.96390469 4.21856618 5.6875 6.6875 C6.12449219 7.31011719 6.56148437 7.93273438 7.01171875 8.57421875 C7.33785156 9.04472656 7.66398438 9.51523438 8 10 C7.67 10.66 7.34 11.32 7 12 C4.35247996 9.42215154 2.05567935 7.08351902 0 4 C0 2.68 0 1.36 0 0 Z " fill="#BC83AC" transform="translate(558,1023)"/>
<path d="M0 0 C0 0.66 0 1.32 0 2 C-1.4096347 2.70180531 -2.82807641 3.38593958 -4.25 4.0625 C-5.03890625 4.44535156 -5.8278125 4.82820313 -6.640625 5.22265625 C-9.25993522 6.08564091 -10.44855176 5.93045933 -13 5 C-9.03195601 2.43244212 -4.84603507 0 0 0 Z " fill="#BD85AD" transform="translate(672,1065)"/>
<path d="M0 0 C1.32 0 2.64 0 4 0 C4 0.66 4 1.32 4 2 C4.763125 2.0825 5.52625 2.165 6.3125 2.25 C9.52373261 3.14615794 10.29374499 4.21611025 12 7 C7.39104317 5.68315519 3.85859765 3.84801255 0 1 C0 0.67 0 0.34 0 0 Z " fill="#D8E9ED" transform="translate(1188,205)"/>
<path d="M0 0 C0.88336837 2.4667645 1.1312406 3.63859372 0.22265625 6.140625 C-0.16019531 6.83671875 -0.54304687 7.5328125 -0.9375 8.25 C-1.31777344 8.95640625 -1.69804688 9.6628125 -2.08984375 10.390625 C-2.39019531 10.92171875 -2.69054687 11.4528125 -3 12 C-3.88336837 9.5332355 -4.1312406 8.36140628 -3.22265625 5.859375 C-2.83980469 5.16328125 -2.45695313 4.4671875 -2.0625 3.75 C-1.68222656 3.04359375 -1.30195312 2.3371875 -0.91015625 1.609375 C-0.60980469 1.07828125 -0.30945313 0.5471875 0 0 Z " fill="#C18AB1" transform="translate(705,1020)"/>
<path d="M0 0 C0.66 0.33 1.32 0.66 2 1 C-0.52788007 3.79872437 -2.20411134 5.45773019 -6 6 C-6 5.34 -6 4.68 -6 4 C-4.03852126 2.61061923 -2.03833424 1.2739589 0 0 Z " fill="#B77EA8" transform="translate(678,1059)"/>
<path d="M0 0 C2.64 0 5.28 0 8 0 C8 0.66 8 1.32 8 2 C8.99 2.33 9.98 2.66 11 3 C6.94393835 2.53199289 3.53411321 2.12046792 0 0 Z " fill="#F1DBE7" transform="translate(581,1588)"/>
</svg>
